<svg width="630" height="630" viewBox="0 0 630 630" fill="none" xmlns="http://www.w3.org/2000/svg">
<rect width="630" height="630" rx="100" fill="#F8F8F8"/>
<path d="M115.498 491.083V443.583V381.583V322.583V273.583V225.583C115.498 225.583 115.498 211.583 117.498 202.583C120.385 189.592 122.332 182.461 129.998 171.583C137.966 160.277 142.8 154.105 154.998 147.583C168.112 140.571 176.648 139.366 191.498 138.583C205.646 137.837 214.961 139.536 227.998 145.083C243.143 151.527 259.498 171.083 259.498 171.083L283.998 202.583L303.498 229.583L314.498 245.583M314.498 245.583L328.498 264.583L340.998 282.583L353.998 301.583L362.998 313.583L373.498 328.083L378.498 335.083L383.498 343.083L387.498 350.083C387.498 350.083 395.645 365.841 395.835 377.083C395.97 385.088 396.583 394.006 393.998 401.583C390.981 410.427 383.498 423.083 383.498 423.083C383.498 423.083 376.126 434.51 367.498 440.583C357.119 447.889 351.75 453.769 339.498 457.083C327.434 460.346 315.933 461.825 303.498 460.583C290.199 459.255 274.998 450.083 271.998 449.083C268.998 448.083 252.998 435.583 247.498 426.083C241.998 416.583 235.998 403.583 235.998 401.583C235.998 401.583 229.998 379.083 233.498 371.083C233.498 371.083 236.776 355.941 239.998 350.083C243.22 344.225 253.998 330.083 253.998 330.083L262.998 321.833L271.998 313.583L289.498 301.583M314.498 245.583L337.498 214.083L352.998 193.583L369.498 172.083C369.498 172.083 379.622 157.949 388.998 152.083C396.258 147.54 400.343 145.702 408.498 143.083C417.485 140.196 422.808 138.686 432.248 138.583C442.263 138.474 447.405 138.203 456.998 141.083C468.962 144.675 476.698 148.836 486.498 156.583C497.558 165.326 502.234 172.717 507.998 185.583C511.737 193.93 512.271 200.52 513.498 209.583C514.624 217.903 514.498 229.583 514.498 229.583V273.583V314.583V379.083V430.583V491.583" stroke="url(#paint0_linear_258_79)" stroke-width="72"/>
<defs>
<linearGradient id="paint0_linear_258_79" x1="315" y1="138.417" x2="315" y2="491.583" gradientUnits="userSpaceOnUse">
<stop stop-color="#C27AFF"/>
<stop offset="1" stop-color="#9810FA"/>
</linearGradient>
</defs>
</svg>
